PathFileType	3	(X/Y/Z)	C:\Users\koon_\Desktop\
DataRate	CameraRate	NumFrames	NumMarkers	Units	OrigDataRate	OrigDataStartFrame	OrigNumFrames
100.0	100.0	4	27	mm	100.0	751	3002	
Frame#	Time	GM:LFHD			GM:RFHD			GM:LBHD			GM:RBHD			GM:C7			GM:T10			GM:CLAV			GM:STRN			GM:RBAK			GM:LSHO			GM:LUPA			GM:LELB			GM:LFRA			GM:LWRA			GM:LWRB			GM:LFIN			GM:RSHO			GM:RUPA			GM:RELB			GM:RFRA			GM:RWRA			GM:RWRB			GM:RFIN			GM:LASI			GM:RASI			GM:LPSI			GM:RPSI			
		X1	Y1	Z1	X2	Y2	Z2	X3	Y3	Z3	X4	Y4	Z4	X5	Y5	Z5	X6	Y6	Z6	X7	Y7	Z7	X8	Y8	Z8	X9	Y9	Z9	X10	Y10	Z10	X11	Y11	Z11	X12	Y12	Z12	X13	Y13	Z13	X14	Y14	Z14	X15	Y15	Z15	X16	Y16	Z16	X17	Y17	Z17	X18	Y18	Z18	X19	Y19	Z19	X20	Y20	Z20	X21	Y21	Z21	X22	Y22	Z22	X23	Y23	Z23	X24	Y24	Z24	X25	Y25	Z25	X26	Y26	Z26	X27	Y27	Z27	
751	7.5	77.504509	1246.4042	327.75833	-76.278954	1230.4998	325.96475	69.953781	1340.7307	233.57706	-91.357224	1312.1429	243.54008	-2.1161575	1288.2186	89.929062	12.599539	1247.9158	-106.7509	18.294151	1118.5455	112.43313	25.483147	1010.8773	15.220386	-93.344421	1276.2185	-26.349813	172.65927	1224.644	103.56995	244.48892	1170.343	25.948959	288.55832	1093.3861	-174.36435	264.06781	945.06799	-176.67873	268.35629	877.75006	-197.47972	289.75592	890.92596	-259.55591	280.42157	797.86841	-232.76079	-171.41095	1175.0997	104.78642	-245.02342	1085.6135	-96.448891	-279.96173	1093.042	-195.3696	-258.53	1000.0383	-190.66943	-248.40814	892.39612	-265.5712	-258.44052	918.93927	-319.55283	-258.37323	825.20099	-318.8161	154.10037	889.96332	-154.78255	-136.64105	899.97522	-158.01332	82.118729	989.64441	-337.92999	-53.607494	981.50922	-346.09796
752	7.51	77.324593	1245.0386	328.69516	-76.657921	1228.9835	325.61508	69.960762	1339.3906	234.54706	-91.350426	1310.8823	244.38182	-2.1132219	1287.1633	90.804268	12.665486	1247.366	-105.86625	18.193417	1117.4094	112.84554	25.585711	1009.9705	15.512738	-93.277252	1275.3284	-25.342617	172.59654	1223.4436	104.27794	244.49316	1169.2913	26.642252	288.69467	1092.7987	-173.79201	264.05682	944.37695	-176.40591	268.31436	877.15283	-197.21231	289.65533	890.42834	-259.33243	280.28882	797.39166	-232.65604	-170.35834	1173.4102	104.64988	-244.82739	1084.7179	-96.049095	-279.74515	1092.3389	-194.99841	-258.38983	999.33496	-190.28441	-248.33446	891.82355	-265.38879	-258.26068	918.32025	-319.39182	-258.26712	824.62946	-318.65881	154.2621	889.72388	-154.8719	-136.48299	899.80475	-158.14621	82.314934	989.8382	-337.89328	-53.470123	981.73157	-346.00302
753	7.52	77.26902	1243.8336	329.34714	-76.516685	1227.9128	327.2247	69.970749	1338.2803	235.24167	-91.387062	1309.816	245.19696	-2.0809491	1286.1296	91.618919	12.766161	1246.8784	-105.03854	18.09161	1116.361	113.26788	25.63553	1009.1693	15.644011	-93.297333	1274.6045	-24.558037	172.60858	1222.3737	104.94457	244.53828	1168.3173	27.338047	288.79657	1092.1556	-173.29192	263.94324	943.755	-176.13805	268.22879	876.61121	-196.93642	289.55429	889.88226	-259.04761	280.20767	796.91364	-232.49194	-170.49484	1172.3466	105.20591	-244.70627	1083.9255	-95.681503	-279.56915	1091.6722	-194.64905	-258.67072	998.40747	-189.82664	-248.26143	891.2525	-265.16409	-258.13483	917.71588	-319.10355	-258.16574	824.08679	-318.46396	154.41608	889.46387	-154.9536	-136.26123	899.51971	-158.18594	82.456978	989.96887	-337.78149	-53.381485	981.91882	-345.90393
754	7.53	77.276901	1242.8776	329.93143	-76.580444	1227.0497	327.89774	69.950203	1337.3969	235.85931	-91.335976	1308.8821	245.87981	-2.1188102	1285.2971	92.303459	12.805058	1246.5173	-104.28731	18.19376	1115.4896	113.69646	25.604876	1008.4105	15.797062	-93.087334	1273.9877	-23.852959	172.69246	1221.4115	105.68999	244.59998	1167.5486	27.964788	288.92618	1091.5714	-172.68381	263.96127	943.04456	-175.74908	268.15115	876.1123	-196.68585	289.53635	889.3905	-258.7778	280.1069	796.40765	-232.35555	-170.49167	1171.439	105.89256	-244.65222	1083.2505	-95.281265	-279.43088	1091.0806	-194.24821	-258.62033	997.8877	-189.40858	-248.10168	890.60333	-264.8244	-257.95792	917.19067	-318.75385	-258.09879	823.55304	-318.22519	154.54651	889.17609	-155.03992	-136.06145	899.19653	-158.29526	82.612717	990.03241	-337.65475	-53.247211	982.10626	-345.84427
